{"asset":{"version":"2.0","generator":"Blockbench 4.12.4 glTF exporter"},"scenes":[{"nodes":[2],"name":"blockbench_export"}],"scene":0,"nodes":[{"name":"beveled_cuboid","mesh":0},{"name":"centre","children":[0]},{"children":[1]}],"bufferViews":[{"buffer":0,"byteOffset":0,"byteLength":10128,"target":34962,"byteStride":12},{"buffer":0,"byteOffset":10128,"byteLength":10128,"target":34962,"byteStride":12},{"buffer":0,"byteOffset":20256,"byteLength":6752,"target":34962,"byteStride":8},{"buffer":0,"byteOffset":27008,"byteLength":2100,"target":34963}],"buffers":[{"byteLength":29108,"uri":"data:application/octet-stream;base64,"}],"accessors":[{"bufferView":0,"componentType":5126,"count":844,"max":[5.3556904792785645,1.3125,4.079456806182861],"min":[-2.59859561920166,0.125,-5.323784351348877],"type":"VEC3"},{"bufferView":1,"componentType":5126,"count":844,"max":[0.8813804984092712,1,1],"min":[-1,-1,-1],"type":"VEC3"},{"bufferView":2,"componentType":5126,"count":844,"max":[0.6152774095535278,0.62109375],"min":[0,0],"type":"VEC2"},{"bufferView":3,"componentType":5123,"count":1050,"max":[843],"min":[0],"type":"SCALAR"}],"materials":[{"pbrMetallicRoughness":{"metallicFactor":0,"roughnessFactor":1,"baseColorTexture":{"index":0}},"alphaMode":"MASK","alphaCutoff":0.05,"doubleSided":true}],"textures":[{"sampler":0,"source":0,"name":"texture"}],"samplers":[{"magFilter":9728,"minFilter":9728,"wrapS":33071,"wrapT":33071}],"images":[{"mimeType":"image/png","uri":"data:image/png;base64,"}],"meshes":[{"primitives":[{"mode":4,"attributes":{"POSITION":0,"NORMAL":1,"TEXCOORD_0":2},"indices":3,"material":0}]}]}