{
	"asset":{
		"generator":"Khronos glTF Blender I/O v4.3.47",
		"version":"2.0"
	},
	"scene":0,
	"scenes":[
		{
			"name":"Scene",
			"nodes":[
				0
			]
		}
	],
	"nodes":[
		{
			"mesh":0,
			"name":"polySurface6",
			"rotation":[
				0.7071068286895752,
				0,
				0,
				0.7071068286895752
			],
			"scale":[
				0.11999999731779099,
				0.11999999731779099,
				0.11999999731779099
			]
		}
	],
	"materials":[
		{
			"doubleSided":true,
			"name":"lambert2",
			"pbrMetallicRoughness":{
				"baseColorFactor":[
					0.5,
					0.5,
					0.5,
					1
				],
				"metallicFactor":0,
				"roughnessFactor":0.5527864098548889
			}
		}
	],
	"meshes":[
		{
			"name":"Mesh",
			"primitives":[
				{
					"attributes":{
						"POSITION":0,
						"NORMAL":1,
						"TEXCOORD_0":2
					},
					"indices":3,
					"material":0
				}
			]
		}
	],
	"accessors":[
		{
			"bufferView":0,
			"componentType":5126,
			"count":2465,
			"max":[
				10.282470703125,
				2.6826398372650146,
				0.06007343530654907
			],
			"min":[
				-10.326606750488281,
				-1.3232530355453491,
				-12.082154273986816
			],
			"type":"VEC3"
		},
		{
			"bufferView":1,
			"componentType":5126,
			"count":2465,
			"type":"VEC3"
		},
		{
			"bufferView":2,
			"componentType":5126,
			"count":2465,
			"type":"VEC2"
		},
		{
			"bufferView":3,
			"componentType":5123,
			"count":9486,
			"type":"SCALAR"
		}
	],
	"bufferViews":[
		{
			"buffer":0,
			"byteLength":29580,
			"byteOffset":0,
			"target":34962
		},
		{
			"buffer":0,
			"byteLength":29580,
			"byteOffset":29580,
			"target":34962
		},
		{
			"buffer":0,
			"byteLength":19720,
			"byteOffset":59160,
			"target":34962
		},
		{
			"buffer":0,
			"byteLength":18972,
			"byteOffset":78880,
			"target":34963
		}
	],
	"buffers":[
		{
			"byteLength":97852,
			"uri":"citron.bin"
		}
	]
}
