{"asset":{"version":"2.0","generator":"Blockbench 4.12.4 glTF exporter"},"scenes":[{"nodes":[1],"name":"blockbench_export"}],"scene":0,"nodes":[{"name":"beveled_cuboid","mesh":0},{"children":[0]}],"bufferViews":[{"buffer":0,"byteOffset":0,"byteLength":11604,"target":34962,"byteStride":12},{"buffer":0,"byteOffset":11604,"byteLength":11604,"target":34962,"byteStride":12},{"buffer":0,"byteOffset":23208,"byteLength":7736,"target":34962,"byteStride":8},{"buffer":0,"byteOffset":30944,"byteLength":2432,"target":34963}],"buffers":[{"byteLength":33376,"uri":"data:application/octet-stream;base64,"}],"accessors":[{"bufferView":0,"componentType":5126,"count":967,"max":[5.3556904792785645,1.703125,4.079456806182861],"min":[-2.59859561920166,0.125,-5.323784351348877],"type":"VEC3"},{"bufferView":1,"componentType":5126,"count":967,"max":[1,1,1],"min":[-1,-0.49613893032073975,-1],"type":"VEC3"},{"bufferView":2,"componentType":5126,"count":967,"max":[45.02069091796875,45.5366096496582],"min":[0,0],"type":"VEC2"},{"bufferView":3,"componentType":5123,"count":1215,"max":[966],"min":[0],"type":"SCALAR"}],"materials":[{"pbrMetallicRoughness":{"metallicFactor":0,"roughnessFactor":1},"alphaMode":"MASK","alphaCutoff":0.05,"doubleSided":true}],"meshes":[{"primitives":[{"mode":4,"attributes":{"POSITION":0,"NORMAL":1,"TEXCOORD_0":2},"indices":3,"material":0}]}]}